<?xml version="1.0" standalone="no"?>
<!DOCTYPE svg PUBLIC "-//W3C//DTD SVG 20010904//EN"
 "http://www.w3.org/TR/2001/REC-SVG-20010904/DTD/svg10.dtd">
<svg version="1.0" xmlns="http://www.w3.org/2000/svg"
 width="384.000000pt" height="384.000000pt" viewBox="0 0 384.000000 384.000000"
 preserveAspectRatio="xMidYMid meet">
<metadata>
Created by potrace 1.11, written by Peter Selinger 2001-2013
</metadata>
<g transform="translate(0.000000,384.000000) scale(0.100000,-0.100000)"
fill="#000000" stroke="none">
<path d="M1705 3829 c-22 -4 -65 -11 -95 -14 -30 -4 -64 -9 -75 -13 -11 -3
-24 -7 -30 -8 -185 -38 -419 -133 -595 -241 -241 -148 -480 -389 -636 -643
-66 -108 -181 -371 -198 -453 -3 -12 -12 -48 -20 -79 -14 -52 -26 -118 -44
-238 -9 -57 -7 -415 2 -455 3 -16 9 -50 12 -75 5 -39 13 -81 28 -140 3 -8 9
-35 15 -60 12 -53 45 -147 54 -157 4 -3 7 -13 7 -21 0 -23 90 -210 148 -306
149 -248 393 -495 635 -641 95 -58 242 -129 342 -166 73 -27 243 -75 298 -84
12 -2 40 -7 62 -10 22 -4 51 -9 65 -11 46 -9 413 -11 457 -3 24 5 65 11 91 14
26 3 58 9 72 12 14 3 30 7 35 9 383 91 677 254 945 523 249 251 416 543 499
876 47 190 56 265 55 485 -1 157 -4 206 -18 290 -3 14 -7 43 -11 64 -3 22 -12
63 -21 91 -8 29 -17 63 -19 75 -7 39 -37 124 -46 135 -5 5 -9 15 -9 23 0 23
-90 210 -148 306 -149 248 -393 495 -635 641 -95 58 -242 129 -342 166 -73 27
-243 75 -298 84 -12 2 -40 7 -62 10 -22 4 -51 9 -65 11 -43 9 -413 11 -455 3z
m395 -643 c74 -13 99 -18 135 -27 22 -6 47 -12 55 -14 64 -13 247 -102 350
-171 248 -166 440 -436 515 -727 13 -53 20 -87 32 -167 11 -74 7 -290 -7 -365
-7 -38 -14 -79 -16 -90 -19 -107 -104 -297 -192 -429 -49 -74 -209 -242 -277
-291 -22 -16 -42 -32 -45 -35 -17 -20 -205 -118 -275 -144 -27 -10 -57 -20
-65 -23 -18 -7 -20 -8 -102 -27 -98 -23 -168 -30 -303 -29 -134 0 -200 8 -300
35 -22 5 -47 11 -55 13 -29 6 -156 59 -220 93 -281 148 -475 365 -603 674 -18
44 -58 180 -63 218 -15 109 -18 148 -18 245 0 222 41 390 142 584 80 153 164
259 312 391 80 71 268 180 375 218 17 5 39 13 50 18 24 9 23 8 107 28 37 9 93
19 125 22 32 4 59 7 61 9 4 3 255 -4 282 -9z"/>
</g>
</svg>
