<svg xmlns="http://www.w3.org/2000/svg" viewBox="0 0 999.90002 999.90002" height="999.9" width="999.9"><path d="M327.59 745.905l-185.658 72.063 72.063-185.658 517.597-517.597c17.04-17.04 44.923-17.04 61.962 0l51.634 51.633c17.04 17.04 17.038 44.923 0 61.962L327.59 745.904z" fill="#f85a68" fill-rule="evenodd"/><path d="M628.534 293.5l140.924-140.924c17.04-17.04 35.63-26.332 41.307-20.654l17.213 17.213c5.68 5.68-3.616 24.27-20.655 41.307L666.4 331.366 628.533 293.5z" fill="#ea434b" fill-rule="evenodd"/><path d="M827.977 149.135l17.21 17.21c17.04 17.04 17.04 44.924 0 61.963L704.264 369.23l-37.865-37.866 140.925-140.924c17.038-17.038 26.334-35.628 20.654-41.307" fill="#c62229" fill-rule="evenodd"/><path d="M590.67 255.637l140.923-140.925c17.04-17.04 44.922-17.04 61.962 0l17.21 17.21c-5.678-5.68-24.267 3.615-41.307 20.655L628.534 293.502l-37.865-37.865z" fill="#f85a68" fill-rule="evenodd"/><path d="M327.59 745.905l-185.658 72.063 72.063-185.658 493.792-493.793c46.8 33.194 84.104 71.112 113.595 113.595L327.59 745.905z" fill="#fff" fill-rule="evenodd"/><path d="M707.788 138.518l-74.075 74.075 37.865 37.865 78.463-78.46c-13.14-11.646-27.205-22.807-42.252-33.48" fill="#eaeaea" fill-rule="evenodd"/><path d="M787.994 209.77l-78.55 78.552-37.866-37.865 78.462-78.46c13.625 12.073 26.258 24.666 37.954 37.774" fill="#d0d0d0" fill-rule="evenodd"/><path d="M787.994 209.77l-78.55 78.552 37.864 37.865 74.075-74.075c-10.176-14.66-21.283-28.775-33.39-42.34" fill="#76757b" fill-rule="evenodd"/><path d="M327.59 745.905l-185.658 72.063 72.063-185.658 457.56-457.56c47.49 32.945 84.765 70.86 113.595 113.595l-457.56 457.56z" fill="#ffd800" fill-rule="evenodd"/><path d="M671.556 174.75l-457.56 457.56-18.145 46.745 23.566 23.565 494.686-494.686c-13.173-11.568-27.335-22.63-42.546-33.184" fill="#f5e6b6" fill-rule="evenodd"/><path d="M752.08 245.683l-494.8 494.803-37.864-37.865 494.686-494.686c13.71 12.038 26.348 24.623 37.98 37.75" fill="#f5d56c" fill-rule="evenodd"/><path d="M752.08 245.683l-494.8 494.803 23.565 23.563 46.745-18.144 457.56-457.56c-9.984-14.802-20.984-29.023-33.07-42.663" fill="#f8bf00" fill-rule="evenodd"/><path d="M327.587 745.907l-185.654 72.06 72.06-185.652c21.395 14.69 42.245 31.947 61.945 51.647 19.7 19.7 36.956 40.55 51.65 61.945" fill="#f0b16c" fill-rule="evenodd"/><path d="M213.994 632.314l-72.06 185.652 114.514-152.38c-13.778-12.237-27.99-23.34-42.454-33.272" fill="#f5d5b3" fill-rule="evenodd"/><path d="M256.448 665.587l-114.515 152.38 152.38-114.515c-5.866-6.603-11.993-13.108-18.375-19.49-6.383-6.383-12.886-12.51-19.49-18.375" fill="#f0b16c" fill-rule="evenodd"/><path d="M294.312 703.452l-152.38 114.515 185.655-72.06c-9.933-14.463-21.036-28.678-33.275-42.455" fill="#c78b4c" fill-rule="evenodd"/><path d="M203.266 794.16l-61.334 23.807 23.808-61.334c7.067 4.854 13.955 10.555 20.463 17.063 6.508 6.51 12.21 13.396 17.063 20.465" fill="#1e1e1e" fill-rule="evenodd"/></svg>